<?xml version="1.0" encoding="utf-8"?>
<svg width="50" height="50" viewBox="0 0 24 24" xmlns="http://www.w3.org/2000/svg">
  <path d="M 22 6.98 L 22 16 C 22 17.1 21.1 18 20 18 L 6 18 L 2 22 L 2 4 C 2 2.9 2.9 2 4 2 L 14.1 2 C 13.46891761285627 5.099403255175726 15.837000680179877 7.999094254807004 19 8 C 20.13 8 21.16 7.61 22 6.98 Z" style="paint-order: fill; fill: rgb(51, 51, 51);"/>
  <path d="M 16 3 C 16 4.66 17.34 6 19 6 C 20.66 6 22 4.66 22 3 C 22 1.3399999999999999 20.66 0 19 0 C 17.34 0 16 1.3399999999999999 16 3 Z" style="paint-order: fill; fill: rgb(255, 0, 0);"/>
</svg>